<svg width="100" height="32" viewBox="0 0 100 32" fill="none" xmlns="http://www.w3.org/2000/svg">
<path d="M17 11C20.0376 11 22.5 8.53757 22.5 5.5C22.5 2.46243 20.0376 0 17 0C13.9624 0 11.5 2.46243 11.5 5.5C11.5 8.53757 13.9624 11 17 11Z" fill="#04A8F0"/>
<path d="M16.9891 14.5657C11.2172 14.5657 6.53427 9.89165 6.53427 4.13062C6.77386 1.30446 4.35618 1.30446 3.70275 2.06535C3.65919 2.10883 3.61563 2.15231 3.55029 2.21753C1.32864 5.10891 0 8.69597 0 12.6309C0 16.0657 3.26714 18.2832 6.7303 18.2832H27.2697C30.7111 18.2832 34 16.0875 34 12.6309C34 8.71771 32.6714 5.10891 30.4497 2.23926C30.4061 2.17405 30.3626 2.13057 30.2972 2.08709C29.622 1.30446 27.2044 1.30446 27.4439 4.13062C27.4439 9.89165 22.761 14.5657 16.9891 14.5657Z" fill="#686DF1"/>
<path d="M18.7989 31.0864L23.6033 24.355C24.6125 22.9446 23.5814 21 21.8044 21H17H12.1956C10.4186 21 9.38754 22.9446 10.3967 24.355L15.2011 31.0864C16.0786 32.3045 17.9214 32.3045 18.7989 31.0864Z" fill="#04A8F0"/>
<path d="M52.423 10.4463V23.5884C52.3145 23.6317 52.1192 23.675 51.9021 23.7183C51.6851 23.7616 51.4463 23.8049 51.1859 23.8049C50.6649 23.8049 50.296 23.7183 50.0789 23.5235C49.8619 23.3286 49.7533 22.9822 49.7533 22.5275V10.4463H45.2822C45.1953 10.3381 45.1302 10.1649 45.0651 9.99168C45.0217 9.79682 45 9.60197 45 9.36381C45 8.99574 45.0868 8.71428 45.2605 8.51942C45.4558 8.32456 45.6946 8.21631 45.9984 8.21631H56.981C57.0461 8.32456 57.1113 8.45447 57.1547 8.64933C57.2198 8.84418 57.2632 9.03904 57.2632 9.25555C57.2632 10.0566 56.9376 10.4463 56.2865 10.4463H52.423Z" fill="#D8E2FF"/>
<path d="M61.6263 23.6752C61.1922 23.6752 60.8449 23.5453 60.5628 23.2638C60.3023 22.9824 60.1504 22.636 60.1504 22.2029V9.64543C60.1504 9.21242 60.2806 8.866 60.5628 8.60619C60.8232 8.32473 61.1922 8.19482 61.6263 8.19482H69.9827C70.0695 8.30308 70.1346 8.43298 70.178 8.62784C70.2431 8.8227 70.2865 9.01756 70.2865 9.23407C70.2865 9.60213 70.1997 9.90524 70.0044 10.1001C69.8307 10.295 69.592 10.4032 69.2881 10.4032H62.8201V14.6251H69.2013C69.2881 14.7334 69.3532 14.8633 69.3966 15.0582C69.4617 15.253 69.5051 15.4479 69.5051 15.6644C69.5051 16.0541 69.4183 16.3356 69.223 16.5304C69.0493 16.7253 68.8106 16.8119 68.5067 16.8119H62.7984V21.4452H70.0695C70.1346 21.5534 70.1997 21.6833 70.2648 21.8782C70.3299 22.073 70.3733 22.2679 70.3733 22.4844C70.3733 22.8741 70.2865 23.1772 70.0912 23.3721C69.9175 23.567 69.6788 23.6536 69.3749 23.6536H61.6263V23.6752Z" fill="#D8E2FF"/>
<path d="M79.9015 10.4463V23.5884C79.793 23.6317 79.5977 23.675 79.3806 23.7183C79.1636 23.7616 78.9248 23.8049 78.6644 23.8049C78.1435 23.8049 77.7745 23.7183 77.5574 23.5235C77.3404 23.3286 77.2319 22.9822 77.2319 22.5275V10.4463H72.7607C72.6739 10.3381 72.6087 10.1649 72.5436 9.99168C72.5002 9.79682 72.4785 9.60197 72.4785 9.36381C72.4785 8.99574 72.5653 8.71428 72.739 8.51942C72.9343 8.32456 73.1731 8.21631 73.4769 8.21631H84.4595C84.5247 8.32456 84.5898 8.45447 84.6332 8.64933C84.6983 8.84418 84.7417 9.03904 84.7417 9.25555C84.7417 10.0566 84.4161 10.4463 83.765 10.4463H79.9015Z" fill="#D8E2FF"/>
<path d="M99.9998 18.2192C99.9998 19.0853 99.8479 19.8647 99.5657 20.5792C99.3053 21.2936 98.8929 21.8999 98.3502 22.4195C97.8293 22.9175 97.1782 23.3288 96.3968 23.5886C95.6372 23.8701 94.769 24 93.7705 24C92.7938 24 91.9256 23.8701 91.1443 23.5886C90.3846 23.3072 89.7335 22.9175 89.1908 22.4195C88.6699 21.8999 88.2575 21.2936 87.9754 20.5792C87.7149 19.8647 87.563 19.0853 87.563 18.2192V8.19486C87.6715 8.15156 87.8669 8.12991 88.0839 8.0866C88.3227 8.0433 88.5614 8 88.8219 8C89.2994 8 89.6683 8.0866 89.9071 8.28146C90.1459 8.47632 90.2544 8.80108 90.2544 9.2774V18.046C90.2544 19.2585 90.5799 20.1678 91.2311 20.7957C91.9039 21.4235 92.7287 21.7267 93.7271 21.7267C94.2263 21.7267 94.7039 21.6401 95.1162 21.4885C95.5286 21.3153 95.8976 21.0771 96.2232 20.774C96.5488 20.4709 96.7875 20.0812 96.9611 19.6265C97.1565 19.1719 97.2433 18.6306 97.2433 18.0244V8.19486C97.3518 8.15156 97.5472 8.12991 97.7642 8.0866C98.003 8.0433 98.2417 8 98.5022 8C98.9797 8 99.3487 8.0866 99.5874 8.28146C99.8262 8.47632 99.9347 8.80108 99.9347 9.2774V18.2192H99.9998Z" fill="#D8E2FF"/>
</svg>
